<?xml version="1.0" encoding="UTF-8" standalone="no"?>
<svg
   xmlns:dc="http://purl.org/dc/elements/1.1/"
   xmlns:cc="http://creativecommons.org/ns#"
   xmlns:rdf="http://www.w3.org/1999/02/22-rdf-syntax-ns#"
   xmlns:svg="http://www.w3.org/2000/svg"
   xmlns="http://www.w3.org/2000/svg"
   xmlns:sodipodi="http://sodipodi.sourceforge.net/DTD/sodipodi-0.dtd"
   xmlns:inkscape="http://www.inkscape.org/namespaces/inkscape"
   version="1.1"
   id="layer_1"
   x="0px"
   y="0px"
   width="900"
   height="450"
   viewBox="0 0 900 450.00001"
   enable-background="new 0 0 992.13 1133.86"
   xml:space="preserve"
   sodipodi:docname="RUTEN.svg"
   inkscape:version="0.92.1 r15371"><metadata
     id="metadata77"><rdf:RDF><cc:Work
         rdf:about=""><dc:format>image/svg+xml</dc:format><dc:type
           rdf:resource="http://purl.org/dc/dcmitype/StillImage" /><dc:title></dc:title></cc:Work></rdf:RDF></metadata><defs
     id="defs75" /><sodipodi:namedview
     pagecolor="#ffffff"
     bordercolor="#666666"
     borderopacity="1"
     objecttolerance="10"
     gridtolerance="10"
     guidetolerance="10"
     inkscape:pageopacity="0"
     inkscape:pageshadow="2"
     inkscape:window-width="1920"
     inkscape:window-height="1018"
     id="namedview73"
     showgrid="false"
     inkscape:pagecheckerboard="true"
     inkscape:zoom="0.7425961"
     inkscape:cx="496.065"
     inkscape:cy="566.92999"
     inkscape:window-x="1912"
     inkscape:window-y="-8"
     inkscape:window-maximized="1"
     inkscape:current-layer="layer_1" /><g
     id="g30"
     transform="translate(-44,-249.85999)"><path
       d="m 102.003,301.845 c -6.737,0 -10.956,-5.049 -10.956,-12.222 0,-7.594 4.219,-11.813 10.956,-11.813 h 296.042 c 6.751,0 10.957,4.219 10.957,11.813 0,7.173 -4.206,12.222 -10.957,12.222 h -133.26 v 19.817 h 139.589 c 21.069,0 32.882,8.438 32.882,27.411 v 109.83 c 0,9.27 -5.893,12.21 -14.753,12.21 -9.283,0 -16.033,-2.94 -16.033,-12.21 V 353.292 c 0,-7.146 -4.641,-9.677 -12.658,-9.677 H 264.785 v 136.358 c 0,9.704 -5.88,12.235 -15.189,12.235 -9.256,0 -15.597,-2.531 -15.597,-12.235 V 343.615 h -128.21 c -8.003,0 -12.644,2.531 -12.644,9.677 v 104.754 c 0,9.282 -5.92,12.657 -15.176,12.657 -9.282,0 -15.189,-3.375 -15.189,-12.657 V 349.073 c 0,-18.973 11.827,-27.411 33.318,-27.411 h 137.901 v -19.817 z"
       id="path10"
       inkscape:connector-curvature="0"
       style="fill:#ffffff" /><g
       id="g16"><g
         id="g14"><path
           d="m 401.987,598.941 c -3.811,-4.668 -8.94,-7.027 -15.254,-7.027 H 277.627 c -6.144,-0.277 -11.629,2.016 -16.178,6.829 l -0.08,0.119 c -3.639,4.218 -5.524,9.202 -5.524,14.833 v 40.215 c -0.263,5.893 1.793,11.035 6.131,15.096 3.732,3.453 8.953,5.34 15.519,5.604 h 109.238 c 5.986,0 10.943,-2.057 14.741,-6.133 3.717,-4.574 5.682,-9.334 5.946,-14.383 v -40.398 c -0.001,-5.341 -1.847,-10.311 -5.433,-14.755 z m -19.262,48.823 c 0,2.387 -0.726,4.287 -2.163,5.736 -0.949,0.949 -2.756,1.662 -5.38,2.137 h -85.305 c -2.875,0 -5.129,-0.594 -6.791,-1.779 -1.688,-0.965 -2.519,-2.994 -2.519,-6.094 v -27.582 c 0,-3.084 0.712,-5.486 2.148,-7.146 1.661,-1.688 4.048,-2.398 7.161,-2.162 h 85.305 c 2.388,0 4.313,0.844 5.736,2.504 0.976,1.676 1.569,3.957 1.807,6.805 v 27.581 z"
           id="path12"
           inkscape:connector-curvature="0"
           style="fill:#ffffff" /></g></g><g
       id="g22"><g
         id="g20"><path
           d="m 236.201,637.902 c -1.491,-5.59 -4.101,-8.215 -8.966,-8.215 -1.49,0 -3.349,0.396 -5.221,0.766 -13.067,3.73 -27.623,7.08 -42.548,10.072 V 606.18 h 39.951 c 5.59,0 8.569,-4.471 8.569,-10.826 0,-5.59 -2.979,-9.32 -8.569,-9.32 h -39.951 v -25.382 h 20.517 c 19.051,0 28.004,-7.832 28.004,-26.501 v -23.878 c 0,-19.065 -8.569,-26.515 -28.004,-26.515 h -72.794 c -19.395,0 -27.965,7.449 -27.965,26.515 v 23.878 c 0,18.669 8.188,26.501 27.609,26.501 h 28.729 v 84.356 c -1.858,0.357 -3.73,0.738 -5.603,1.123 -7.45,1.119 -15.282,2.609 -22.771,3.348 v -66.794 c 0,-5.987 -5.208,-9.349 -12.302,-9.349 -7.476,0 -12.328,3.361 -12.328,9.349 v 69.786 c -4.852,0.357 -9.335,0.74 -14.174,1.107 -6.355,0.752 -10.456,4.482 -10.456,10.852 v 2.229 c 1.121,7.832 5.591,10.824 11.563,10.824 h 2.229 c 44.802,-4.85 97.832,-14.555 135.515,-25.012 5.603,-1.49 9.335,-5.221 9.335,-10.836 -0.001,-1.11 -0.001,-2.598 -0.369,-3.733 z M 132.422,540.861 c -7.463,0 -10.074,-1.49 -10.074,-8.214 V 512.5 c 0,-6.725 2.98,-8.228 10.469,-8.228 h 61.573 c 7.081,0 10.457,1.503 10.457,8.228 v 20.146 c 0,6.725 -3.732,8.214 -10.839,8.214 h -61.586 z"
           id="path18"
           inkscape:connector-curvature="0"
           style="fill:#ffffff" /></g></g><g
       id="g28"><g
         id="g26"><path
           d="m 422.239,568.246 c -1.898,-2.729 -5.011,-4.351 -9.269,-4.878 -17.246,-2.544 -34.333,-6.777 -50.828,-12.552 l -3.534,-1.239 7.964,-5.591 c 9.018,-6.078 16.785,-13.831 23.086,-23.047 4.614,-6.487 6.949,-12.961 6.949,-19.185 l -0.225,-3.428 c -1.055,-7.423 -6.448,-11.959 -16.007,-13.514 l -78.792,-0.013 c -9.006,0 -18.565,5.102 -28.361,15.162 l -0.065,0.066 c -8.307,7.845 -17.575,13.119 -27.557,15.663 -3.626,1.648 -6.118,4.035 -7.503,7.371 -1.12,2.743 -1.002,6.025 0.33,9.717 1.134,2.835 3.402,4.865 6.698,5.973 5.551,2.387 15.071,-1.107 29.337,-10.587 0.382,-0.304 2.017,-1.569 2.017,-1.569 l 1.2,0.989 c 7.081,5.999 14.781,11.853 24.195,18.433 l 3.098,2.149 -3.573,1.239 c -16.23,5.63 -35.467,10.561 -57.144,14.688 -3.942,0.791 -7.027,2.545 -9.163,5.208 -1.701,2.413 -2.545,5.169 -2.545,8.359 l 0.053,1.318 c 0.818,3.613 2.348,6.422 4.799,8.609 5.934,3.666 22.099,4.588 92.717,-22.677 l 1.028,-0.91 1.464,0.567 c 18.09,10.43 44.143,18.169 77.421,23.034 3.534,0.265 6.725,-0.514 9.678,-2.387 2.531,-1.674 4.167,-4.219 4.97,-7.752 0,0 0,-0.04 0,-0.093 0,-0.329 0.04,-1.372 0.04,-1.372 0,-3.11 -0.79,-5.575 -2.478,-7.751 z m -90.896,-29.099 c -12.908,-7.423 -25.935,-16.626 -39.081,-27.623 5.736,-5.261 10.878,-8.478 15.399,-9.678 h 53.809 c 2.887,0 4.68,1.068 5.393,3.217 0.711,2.162 0.474,4.904 -0.713,8.24 -4.311,5.763 -15.901,14.361 -34.807,25.844 z"
           id="path24"
           inkscape:connector-curvature="0"
           style="fill:#ffffff" /></g></g></g><path
     d="m 109.029,150.78001 h 22.23 l 32.659,64.804 H 135.65 l -15.466,-39.146 -15.374,39.146 H 76.594 Z"
     id="path32"
     inkscape:connector-curvature="0" /><path
     d="m 279.959,150.78001 h 22.23 l 32.672,64.804 h -28.282 l -15.453,-39.146 -15.399,39.146 h -28.202 z"
     id="path34"
     inkscape:connector-curvature="0" /><g
     id="g38"
     transform="translate(-44,-249.85999)"><path
       d="m 476.053,348.685 c -8.761,0 -12.779,-4.75 -12.779,-14.243 0,-8.396 4.019,-12.779 12.779,-12.779 h 265.488 c 8.398,0 12.777,4.384 12.777,12.779 0,9.494 -4.379,14.243 -12.777,14.243 H 621.757 v 84.347 h 122.646 c 8.386,0 12.79,4.385 12.79,12.78 0,9.5 -4.404,14.244 -12.79,14.244 H 622.481 c 1.108,14.243 4.391,27.395 9.507,39.07 5.848,14.975 16.428,30.319 31.763,45.649 13.146,12.424 29.955,24.472 50.762,35.791 14.608,7.294 33.596,15.33 56.959,23.742 4.39,2.908 6.947,6.936 6.947,12.764 -0.725,8.771 -4.759,13.527 -12.788,14.242 -3.639,0 -8.03,-1.088 -12.777,-2.906 -29.217,-10.232 -53.318,-21.924 -71.58,-34.686 -19.712,-12.426 -35.771,-25.58 -47.466,-39.088 -12.407,-15.331 -21.175,-32.138 -26.291,-50.393 -5.472,20.446 -16.06,39.073 -31.393,55.877 -15.704,16.063 -35.065,30.662 -58.437,43.445 -16.064,8.035 -33.96,16.059 -52.953,23.383 -5.1,2.92 -8.762,4.367 -11.309,4.367 -9.134,-0.715 -13.884,-5.471 -14.244,-14.242 0,-5.473 2.191,-9.855 6.942,-12.764 37.243,-12.422 64.991,-25.574 83.609,-38.73 20.456,-14.227 36.885,-31.749 48.572,-52.924 8.749,-14.988 13.884,-32.511 15.327,-52.598 h -115.17 c -8.778,0 -12.797,-4.744 -12.797,-14.244 0,-8.395 4.019,-12.78 12.797,-12.78 H 594.382 V 348.684 H 476.053 Z"
       id="path36"
       inkscape:connector-curvature="0"
       style="fill:#ffffff" /></g><g
     id="g70"
     transform="translate(-44,-249.85999)"><g
       id="g44"><g
         id="g42"><path
           d="m 901.436,322.107 h -93.692 c -12.553,0 -22.704,10.171 -22.704,22.71 v 181.108 l -29.812,37.125 52.354,0.082 c 0.054,0 0.107,0.004 0.161,0.004 h 93.692 c 12.539,0 22.704,-10.179 22.704,-22.718 V 344.812 c 10e-4,-12.54 -10.164,-22.705 -22.703,-22.705 z"
           id="path40"
           inkscape:connector-curvature="0"
           style="fill:#404040" /></g></g><g
       id="g54"><path
         d="m 841.166,360.482 c 1.926,0 3.178,1.589 3.178,3.843 0,2.366 -1.252,3.949 -3.178,3.949 h -9.031 v 13.897 c 2.821,-1.141 5.419,-2.387 7.674,-3.507 0.567,-0.35 1.147,-0.449 1.582,-0.449 1.253,0 2.242,0.91 2.953,2.486 0.33,0.659 0.449,1.332 0.449,2.017 0,1.24 -0.58,2.163 -1.925,2.94 -3.06,1.701 -6.777,3.382 -10.733,5.09 v 27.53 c 0,7.238 -3.375,10.179 -11.985,10.179 -3.6,0 -6.302,-0.35 -9.018,-0.917 -1.688,-0.336 -2.717,-1.813 -2.717,-3.836 0,-0.336 0,-0.666 0.12,-1.141 0.343,-2.242 1.688,-3.256 3.163,-3.256 0.225,0 0.449,0 0.778,0.118 1.819,0.442 4.522,0.778 6.791,0.778 3.717,0 4.509,-0.672 4.509,-3.837 v -22.454 c -3.837,1.457 -7.792,2.808 -11.182,3.949 -0.567,0.119 -1.015,0.217 -1.463,0.217 -1.569,0 -2.928,-1.008 -3.494,-3.046 -0.237,-0.666 -0.355,-1.245 -0.355,-1.806 0,-1.582 0.922,-2.702 2.491,-3.157 4.18,-1.246 9.164,-2.94 14.003,-4.622 v -17.173 h -12.645 c -2.149,0 -3.164,-1.583 -3.164,-3.837 0,-2.366 1.015,-3.955 3.164,-3.955 h 12.645 v -14.359 c 0,-2.155 1.596,-3.289 4.073,-3.289 2.704,0 4.285,1.134 4.285,3.289 v 14.359 z"
         id="path46"
         inkscape:connector-curvature="0"
         style="fill:#ffffff" /><g
         id="g52"><g
           id="g50"><path
             d="m 889.595,352.01 -18.129,0.006 c 1.99,-3.896 3.968,-8.3 5.445,-13.125 0.105,-0.303 0.105,-0.633 0.105,-0.831 0,-1.463 -1.267,-2.413 -3.468,-2.934 -0.726,-0.105 -1.45,-0.204 -1.979,-0.204 -1.687,0 -2.729,0.725 -3.256,2.723 -1.16,3.975 -3.15,9.328 -5.564,14.371 h -7.766 c -6.395,0 -9.427,2.512 -9.427,9.203 v 57.901 c 0,6.804 3.032,9.335 9.427,9.335 h 34.61 c 6.29,0 9.427,-2.532 9.427,-9.335 v -57.908 c 10e-4,-6.683 -3.135,-9.202 -9.425,-9.202 z m 1.477,65.859 c 0,2.188 -1.055,2.927 -3.376,2.927 l -30.918,0.006 c -2.202,0 -3.27,-0.739 -3.27,-2.934 v -25.282 l 37.563,-0.007 v 25.29 z m 0,-32.725 h -37.563 v -22.652 c 0,-2.294 1.067,-2.934 3.27,-2.934 l 30.918,-0.006 c 2.321,0 3.376,0.646 3.376,2.94 v 22.652 z"
             id="path48"
             inkscape:connector-curvature="0"
             style="fill:#ffffff" /></g></g></g><g
       id="g60"><g
         id="g58"><path
           d="m 894.658,539.51 c -5.406,-0.29 -11.022,-1.187 -16.086,-2.545 h 0.751 c 5.472,0 7.951,-2.03 7.951,-7.014 v -20.977 c 0,-5.076 -2.584,-7.09 -8.425,-7.09 l -47.689,0.006 c -5.749,0 -8.439,2.008 -8.439,7.097 v 20.964 c 0,4.72 2.268,6.764 7.106,6.975 -4.892,1.371 -10.481,2.333 -15.848,2.689 -1.819,0.093 -2.781,1.161 -2.781,2.875 0,0.198 0,0.383 0.104,0.672 0.186,1.82 1.543,2.98 3.361,2.98 h 0.489 c 9.11,-0.778 19.368,-3.27 26.449,-6.711 1.266,-0.58 1.739,-1.451 1.739,-2.413 v -0.04 h 21.109 v 0.04 c 0,0.962 0.58,1.938 2.005,2.492 7.489,3.455 18.339,6.052 27.345,6.619 h 0.476 c 1.924,0 3.071,-1.147 3.361,-3.072 v -0.567 c 0.002,-1.727 -1.145,-2.875 -2.978,-2.98 z m -65.041,-30.523 c 0,-1.635 0.963,-2.123 2.781,-2.123 h 45.29 c 1.82,0 2.678,0.488 2.678,2.11 v 3.731 h -50.749 z m 0,8.24 50.749,-0.013 v 4.258 l -50.749,0.013 z m 2.781,14.649 c -1.818,0 -2.781,-0.475 -2.781,-2.109 v -3.798 h 50.749 v 3.798 c 0,1.635 -0.857,2.109 -2.678,2.109 z"
           id="path56"
           inkscape:connector-curvature="0"
           style="fill:#ffffff" /></g></g><path
       d="m 812.095,455.439 h 37.141 v 7.997 h -29.651 c -1.465,0 -2.361,1.345 -2.361,2.795 0,1.667 0.896,3.019 2.361,3.019 h 69.457 c 1.464,0 2.36,-1.358 2.36,-3.019 0,-1.45 -0.896,-2.795 -2.36,-2.795 h -31.763 v -7.997 l 39.7,-0.006 c 1.451,0 2.359,-1.438 2.359,-3.112 0,-1.688 -0.908,-2.914 -2.359,-2.914 h -39.7 v -4.45 c 0,-2.116 -1.476,-3.145 -4.034,-3.145 -2.676,0 -4.009,1.028 -4.009,3.145 v 4.45 h -37.141 c -1.569,0 -2.466,1.226 -2.466,2.914 0,1.675 0.896,3.118 2.466,3.118 z"
       id="path62"
       inkscape:connector-curvature="0"
       style="fill:#ffffff" /><g
       id="g68"><g
         id="g66"><path
           d="m 890.809,473.061 -72.886,0.007 c -6.04,0 -8.702,1.576 -8.702,5.669 v 14.127 c 0,4.101 2.662,5.577 8.702,5.577 h 72.886 c 6.144,0 8.82,-1.477 8.82,-5.577 V 478.73 c 0,-4.086 -2.677,-5.669 -8.82,-5.669 z m -54.441,21.115 H 820.27 c -1.991,0 -3.008,-0.369 -3.008,-1.872 v -13.007 c 0,-1.582 1.017,-1.952 3.008,-1.952 h 16.099 v 16.831 z m 26.949,0 h -19.118 v -16.831 h 19.118 z m 28.282,-1.878 c 0,1.503 -1.12,1.872 -3.032,1.872 l -17.443,0.006 v -16.831 h 17.443 c 1.912,0 3.032,0.37 3.032,1.952 z"
           id="path64"
           inkscape:connector-curvature="0"
           style="fill:#ffffff" /></g></g></g></svg>